<svg width="104" height="103" viewBox="0 0 104 103" fill="none" xmlns="http://www.w3.org/2000/svg">
<circle cx="52" cy="51.5486" r="51.0723" fill="white"/>
<g clip-path="url(#clip0_891_16)">
<path d="M51.9914 72.9063C51.8718 72.9063 51.735 72.8892 51.6154 72.8379C51.5128 72.8037 51.4273 72.7695 51.3419 72.7011C51.3419 72.7011 51.2051 72.6156 51.1538 72.5472C44.7607 66.5281 41.3589 67.9987 37.0342 69.8455C34.0085 71.145 30.5897 72.6156 25.9914 71.1963C25.4786 71.0424 25.1196 70.5636 25.1196 70.0164V30.8236C25.1196 30.4303 25.3077 30.0712 25.6154 29.8318C25.923 29.5924 26.3333 29.524 26.7094 29.6437C30.4359 30.7894 33.1538 29.6266 36.0427 28.3783C40.4188 26.4973 44.9145 24.5821 51.9914 30.7894C59.0854 24.5821 63.5812 26.4973 67.9401 28.3783C70.829 29.6266 73.5641 30.7894 77.2735 29.6437C77.6495 29.524 78.0598 29.5924 78.3675 29.8318C78.6752 30.0712 78.8632 30.4303 78.8632 30.8236V70.0507C78.8632 70.5978 78.5042 71.0595 77.9914 71.2305C73.4102 72.6498 69.9743 71.1792 66.9487 69.8797C62.641 68.0329 59.2393 66.5623 52.829 72.5814C52.7778 72.6327 52.7265 72.684 52.6581 72.7182C52.6581 72.7182 52.4872 72.8208 52.3846 72.855C52.2478 72.9063 52.1111 72.9234 51.9743 72.9234L51.9914 72.9063ZM27.5983 69.0931C30.8803 69.8284 33.4102 68.734 36.0769 67.6054C40.1795 65.8441 44.4017 64.0315 50.7778 68.9905V32.9952C44.6239 27.3865 41.2735 28.8229 37.0513 30.6526C34.3846 31.7983 31.4102 33.0807 27.6154 32.3967V69.1102L27.5983 69.0931ZM61.2222 65.7757C63.6837 65.7757 65.8205 66.6991 67.9401 67.6054C70.6068 68.7511 73.1196 69.8284 76.4188 69.0931V32.3796C72.6239 33.0636 69.6325 31.7812 66.9829 30.6355C62.7607 28.8229 59.4102 27.3694 53.2393 32.9781V68.9905C56.3333 66.5794 58.9145 65.7757 61.2393 65.7757H61.2222Z" fill="#74B4F6"/>
<path d="M81.7692 76.5486H22.2308C21.547 76.5486 21 76.0014 21 75.3174V33.4569C21 32.7729 21.547 32.2257 22.2308 32.2257H26.3675V34.6881H23.4615V74.0862H80.5385V34.6881H77.6325V32.2257H81.7692C82.453 32.2257 83 32.7729 83 33.4569V75.3174C83 76.0014 82.453 76.5486 81.7692 76.5486Z" fill="#74B4F6"/>
</g>
<defs>
<clipPath id="clip0_891_16">
<rect width="62" height="50" fill="white" transform="translate(21 26.5486)"/>
</clipPath>
</defs>
</svg>
