<svg xmlns="http://www.w3.org/2000/svg" xmlns:xlink="http://www.w3.org/1999/xlink" id="Layer_1" data-name="Layer 1" viewBox="137.79 207.76 821.64 688.38" width="822" height="689">
    <defs>
        <style>
        .cls-1 {
            fill: url(#linear-gradient-15);
        }

        .cls-2 {
            fill: url(#linear-gradient-13);
        }

        .cls-3 {
            letter-spacing: 0em;
        }

        .cls-4 {
            fill: url(#linear-gradient-2);
        }

        .cls-5 {
            fill: url(#linear-gradient-10);
        }

        .cls-6 {
            fill: url(#linear-gradient-12);
        }

        .cls-7 {
            letter-spacing: .02em;
        }

        .cls-8 {
            letter-spacing: .02em;
        }

        .cls-9 {
            letter-spacing: 0em;
        }

        .cls-10 {
            fill: url(#linear-gradient-4);
        }

        .cls-11 {
            fill: url(#linear-gradient-3);
        }

        .cls-12 {
            fill: url(#linear-gradient-5);
        }

        .cls-13 {
            font-size: 569px;
        }

        .cls-13,
        .cls-14 {
            font-family: Bingo-Regular, Bingo;
        }

        .cls-15 {
            fill: url(#linear-gradient-8);
        }

        .cls-16 {
            letter-spacing: .02em;
        }

        .cls-17 {
            fill: url(#linear-gradient-14);
        }

        .cls-18 {
            letter-spacing: .02em;
        }

        .cls-19 {
            fill: url(#linear-gradient-7);
        }

        .cls-20 {
            fill: url(#linear-gradient-9);
        }

        .cls-21 {
            letter-spacing: -.02em;
        }

        .cls-22 {
            fill: url(#linear-gradient-11);
        }

        .cls-23 {
            fill: url(#linear-gradient-6);
        }

        .cls-14 {
            font-size: 126px;
        }

        .cls-24 {
            letter-spacing: .02em;
        }

        .cls-25 {
            letter-spacing: .04em;
        }

        .cls-26 {
            letter-spacing: -.02em;
        }

        .cls-27 {
            letter-spacing: -.02em;
        }

        .cls-28 {
            fill: url(#linear-gradient-16);
        }

        .cls-29 {
            fill: url(#linear-gradient);
        }
        </style>
        <linearGradient id="linear-gradient" x1="249.36" y1="463.52" x2="836.32" y2="463.52" gradientUnits="userSpaceOnUse">
            <stop offset="0" stop-color="#00d8ff"/>
            <stop offset=".07" stop-color="#06cefe"/>
            <stop offset=".18" stop-color="#16b5fc"/>
            <stop offset=".32" stop-color="#318cfa"/>
            <stop offset=".48" stop-color="#5654f7"/>
            <stop offset=".49" stop-color="#5951f7"/>
            <stop offset=".55" stop-color="#604ef2"/>
            <stop offset=".65" stop-color="#7547e7"/>
            <stop offset=".76" stop-color="#983cd4"/>
            <stop offset=".89" stop-color="#c72dbb"/>
            <stop offset="1" stop-color="#f71fa2"/>
        </linearGradient>
        <linearGradient id="linear-gradient-2" x1="249.36" y1="463.52" x2="836.32" y2="463.52" gradientUnits="userSpaceOnUse">
            <stop offset="0" stop-color="#18c8ff"/>
            <stop offset=".22" stop-color="#1dc0ff"/>
            <stop offset=".55" stop-color="#2dabff"/>
            <stop offset=".95" stop-color="#4689ff"/>
            <stop offset="1" stop-color="#4a84ff"/>
        </linearGradient>
        <linearGradient id="linear-gradient-3" x1="137.79" y1="838.92" x2="959.43" y2="838.92" xlink:href="#linear-gradient-2"/>
        <linearGradient id="linear-gradient-4" x1="137.79" y1="838.92" x2="959.43" y2="838.92" xlink:href="#linear-gradient-2"/>
        <linearGradient id="linear-gradient-5" x1="137.79" y1="838.92" x2="959.43" y2="838.92" xlink:href="#linear-gradient-2"/>
        <linearGradient id="linear-gradient-6" x1="137.79" y1="838.92" x2="959.43" y2="838.92" xlink:href="#linear-gradient-2"/>
        <linearGradient id="linear-gradient-7" x1="137.79" y1="838.92" x2="959.43" y2="838.92" xlink:href="#linear-gradient-2"/>
        <linearGradient id="linear-gradient-8" x1="137.79" y1="838.92" x2="959.43" y2="838.92" xlink:href="#linear-gradient-2"/>
        <linearGradient id="linear-gradient-9" x1="137.79" y1="838.92" x2="959.43" y2="838.92" xlink:href="#linear-gradient-2"/>
        <linearGradient id="linear-gradient-10" x1="137.79" y1="838.92" x2="959.43" y2="838.92" xlink:href="#linear-gradient-2"/>
        <linearGradient id="linear-gradient-11" x1="137.79" y1="838.92" x2="959.43" y2="838.92" xlink:href="#linear-gradient-2"/>
        <linearGradient id="linear-gradient-12" x1="137.79" y1="838.92" x2="959.43" y2="838.92" xlink:href="#linear-gradient-2"/>
        <linearGradient id="linear-gradient-13" x1="137.79" y1="838.92" x2="959.43" y2="838.92" xlink:href="#linear-gradient-2"/>
        <linearGradient id="linear-gradient-14" x1="137.79" y1="838.92" x2="959.43" y2="838.92" xlink:href="#linear-gradient-2"/>
        <linearGradient id="linear-gradient-15" x1="137.79" y1="838.92" x2="959.43" y2="838.92" xlink:href="#linear-gradient-2"/>
        <linearGradient id="linear-gradient-16" x1="657.29" y1="468.12" x2="740.84" y2="468.12" xlink:href="#linear-gradient-2"/>
    </defs>
    <g>
        <g>
            <path class="cls-29" d="M249.36,466.65v-128.03h50.39v128.03c.57,47.23,39.51,85.35,87.04,85.35s86.47-38.12,87.04-85.35v-128.03h50.39v128.03c-.57,75.11-61.85,135.99-137.44,135.99s-137.44-60.88-137.44-135.99ZM386.8,719.29h-40.09v-50.07h40.09c71.58,0,87.04-60.31,87.04-75.11h50.39c0,54.05-46.96,125.18-137.44,125.18Z"/>
            <path class="cls-29" d="M836.32,207.76v258.9c-.57,75.11-61.85,135.99-137.44,135.99s-137.44-59.75-137.44-136.56c0-72.83,59.56-135.99,137.44-135.99,30.35,0,61.27,10.24,87.04,30.73v-153.06h50.39ZM785.93,466.65c0-47.8-38.94-86.49-87.04-86.49s-87.04,38.69-87.04,86.49,38.94,85.92,87.04,85.92,87.04-38.69,87.04-85.92Z"/>
        </g>
        <g>
            <path class="cls-4" d="M249.36,466.65v-128.03h50.39v128.03c.57,47.23,39.51,85.35,87.04,85.35s86.47-38.12,87.04-85.35v-128.03h50.39v128.03c-.57,75.11-61.85,135.99-137.44,135.99s-137.44-60.88-137.44-135.99ZM386.8,719.29h-40.09v-50.07h40.09c71.58,0,87.04-60.31,87.04-75.11h50.39c0,54.05-46.96,125.18-137.44,125.18Z"/>
            <path class="cls-4" d="M836.32,207.76v258.9c-.57,75.11-61.85,135.99-137.44,135.99s-137.44-59.75-137.44-136.56c0-72.83,59.56-135.99,137.44-135.99,30.35,0,61.27,10.24,87.04,30.73v-153.06h50.39ZM785.93,466.65c0-47.8-38.94-86.49-87.04-86.49s-87.04,38.69-87.04,86.49,38.94,85.92,87.04,85.92,87.04-38.69,87.04-85.92Z"/>
        </g>
    </g>
    <g>
        <g>
            <path class="cls-11" d="M137.79,839.05v-28.35h11.09v28.35c.13,10.46,8.69,18.9,19.15,18.9s19.03-8.44,19.15-18.9v-28.35h11.09v28.35c-.13,16.63-13.61,30.12-30.24,30.12s-30.24-13.48-30.24-30.12ZM168.04,895h-8.82v-11.09h8.82c15.75,0,19.15-13.36,19.15-16.63h11.09c0,11.97-10.33,27.72-30.24,27.72Z"/>
            <path class="cls-10" d="M206.46,838.92c0-16.63,13.48-30.24,30.24-30.24s30.24,13.61,30.24,30.24c-.13,16.76-13.61,30.24-30.24,30.24s-30.24-13.48-30.24-30.24ZM217.55,838.92c0,10.58,8.57,19.15,19.15,19.15s19.15-8.57,19.15-19.15-8.57-19.15-19.15-19.15-19.15,8.57-19.15,19.15Z"/>
            <path class="cls-12" d="M330.45,841.7c0,15.25-12.47,27.6-27.72,27.6s-27.6-12.35-27.6-27.6v-31h11.09v30.87c0,9.2,7.43,16.63,16.51,16.63s16.63-7.43,16.63-16.63v-30.87h11.09v31Z"/>
            <path class="cls-23" d="M427.84,781.72v57.33c-.13,16.63-13.61,30.12-30.24,30.12s-30.24-13.23-30.24-30.24c0-16.13,13.1-30.12,30.24-30.12,6.68,0,13.48,2.27,19.15,6.8v-33.9h11.09ZM416.75,839.05c0-10.58-8.57-19.15-19.15-19.15s-19.15,8.57-19.15,19.15,8.57,19.03,19.15,19.03,19.15-8.57,19.15-19.03Z"/>
            <path class="cls-19" d="M466.14,858.08c5.67,0,11.09-2.52,14.74-6.93l9.58,5.67c-6.3,8.57-15.12,12.35-23.82,12.35-15.62,0-30.75-11.84-30.75-30.12s15.37-30.24,30.75-30.24c11.72,0,23.44,6.55,28.1,20.67l-41.33,23.81c3.53,3.15,8.06,4.79,12.6,4.79h.13ZM447.62,843.96c21.29-12.35,10.58-6.17,32.01-18.52-3.91-3.91-8.7-5.67-13.23-5.67-9.95,0-19.53,8.06-19.53,18.9,0,1.76.25,3.53.76,5.29Z"/>
            <path class="cls-15" d="M528.51,869.17c-16.63,0-30.24-13.36-30.24-30.12s13.61-30.24,30.24-30.24c7.43,0,14.87,2.77,20.79,8.19l-8.44,7.31c-3.65-3.03-8.06-4.41-12.35-4.41-10.96,0-19.15,8.82-19.15,19.03,0,10.71,8.57,19.15,19.15,19.15,4.41,0,8.69-1.39,12.35-4.41l8.44,7.31c-5.92,5.54-13.36,8.19-20.79,8.19Z"/>
            <path class="cls-20" d="M567.07,810.7v56.7h-11.09v-56.7h11.09Z"/>
            <path class="cls-5" d="M639.77,839.05c0,16.13-13.1,30.12-30.24,30.12-6.8,0-13.61-2.27-19.15-6.8v33.77h-11.09v-57.08c0-16.88,13.61-30.24,30.24-30.24s30.24,13.23,30.24,30.24ZM628.68,839.05c0-10.58-8.57-19.15-19.15-19.15s-19.15,8.57-19.15,19.15,8.57,19.03,19.15,19.03,19.15-8.57,19.15-19.03Z"/>
            <path class="cls-22" d="M692.56,867.4v-31c0-9.07-7.43-16.51-16.63-16.51s-16.51,7.43-16.51,16.51v31h-11.09v-85.68h11.09v32.64c4.92-3.78,10.84-5.54,16.51-5.54,15.25,0,27.72,12.22,27.72,27.6v31h-11.09Z"/>
            <path class="cls-6" d="M741.83,858.08c5.67,0,11.09-2.52,14.74-6.93l9.58,5.67c-6.3,8.57-15.12,12.35-23.82,12.35-15.62,0-30.75-11.84-30.75-30.12s15.37-30.24,30.75-30.24c11.72,0,23.44,6.55,28.1,20.67l-41.33,23.81c3.53,3.15,8.06,4.79,12.6,4.79h.13ZM723.3,843.96c21.29-12.35,10.58-6.17,32.01-18.52-3.91-3.91-8.7-5.67-13.23-5.67-9.95,0-19.53,8.06-19.53,18.9,0,1.76.25,3.53.76,5.29Z"/>
            <path class="cls-2" d="M775.72,867.4v-31c0-15.25,12.35-27.6,27.6-27.6s27.72,12.35,27.72,27.6h-11.09c0-9.07-7.43-16.51-16.63-16.51s-16.51,7.43-16.51,16.51v31h-11.09Z"/>
            <path class="cls-17" d="M866.82,858.08c5.67,0,11.09-2.52,14.74-6.93l9.58,5.67c-6.3,8.57-15.12,12.35-23.82,12.35-15.62,0-30.75-11.84-30.75-30.12s15.37-30.24,30.75-30.24c11.72,0,23.44,6.55,28.1,20.67l-41.33,23.81c3.53,3.15,8.06,4.79,12.6,4.79h.13ZM848.3,843.96c21.29-12.35,10.58-6.17,32.01-18.52-3.91-3.91-8.7-5.67-13.23-5.67-9.95,0-19.53,8.06-19.53,18.9,0,1.76.25,3.53.76,5.29Z"/>
            <path class="cls-1" d="M959.43,781.72v57.33c-.13,16.63-13.61,30.12-30.24,30.12s-30.24-13.23-30.24-30.24c0-16.13,13.1-30.12,30.24-30.12,6.68,0,13.48,2.27,19.15,6.8v-33.9h11.09ZM948.34,839.05c0-10.58-8.57-19.15-19.15-19.15s-19.15,8.57-19.15,19.15,8.57,19.03,19.15,19.03,19.15-8.57,19.15-19.03Z"/>
        </g>
    </g>
    <circle class="cls-28" cx="699.06" cy="468.12" r="41.78"/>
</svg>